<svg width="55" height="55" viewBox="0 0 55 55" fill="none" xmlns="http://www.w3.org/2000/svg">
<path fill-rule="evenodd" clip-rule="evenodd" d="M27.5575 6.4375C44.725 8.0725 54.535 19.5175 53.7175 53.8525H16.1125C16.1125 39.1375 32.4625 43.225 29.1925 19.5175" fill="black"/>
<path d="M27.5575 6.4375C44.725 8.0725 54.535 19.5175 53.7175 53.8525H16.1125C16.1125 39.1375 32.4625 43.225 29.1925 19.5175" stroke="black" stroke-width="1.22625" stroke-linecap="round" stroke-linejoin="round"/>
<path fill-rule="evenodd" clip-rule="evenodd" d="M30.8275 19.5175C31.4488 24.2753 21.7533 31.5674 17.7475 34.2325C12.8425 37.5025 13.1368 41.3284 9.57253 40.7725C7.86886 39.2356 11.8779 35.8021 9.57253 35.8675C7.93753 35.8675 9.88318 37.8785 7.93753 39.1375C6.30253 39.1375 1.39262 40.7725 1.39753 32.5975C1.39753 29.3275 11.2075 12.9775 11.2075 12.9775C11.2075 12.9775 14.2977 9.87097 14.4775 7.25497C13.284 5.62978 13.66 3.98497 13.66 2.34997C15.295 0.714971 18.565 6.43747 18.565 6.43747H21.835C21.835 6.43747 23.1103 3.18055 25.9225 1.53247C27.5575 1.53247 27.5575 6.43747 27.5575 6.43747" fill="black"/>
<path d="M30.8275 19.5175C31.4488 24.2753 21.7533 31.5674 17.7475 34.2325C12.8425 37.5025 13.1368 41.3284 9.57253 40.7725C7.86886 39.2356 11.8779 35.8021 9.57253 35.8675C7.93753 35.8675 9.88318 37.8785 7.93753 39.1375C6.30253 39.1375 1.39262 40.7725 1.39753 32.5975C1.39753 29.3275 11.2075 12.9775 11.2075 12.9775C11.2075 12.9775 14.2977 9.87097 14.4775 7.25497C13.284 5.62978 13.66 3.98497 13.66 2.34997C15.295 0.714971 18.565 6.43747 18.565 6.43747H21.835C21.835 6.43747 23.1103 3.18055 25.9225 1.53247C27.5575 1.53247 27.5575 6.43747 27.5575 6.43747" stroke="black" stroke-width="1.22625" stroke-linecap="round" stroke-linejoin="round"/>
<path fill-rule="evenodd" clip-rule="evenodd" d="M7.11999 31.78C7.11999 31.9969 7.03386 32.2048 6.88055 32.3581C6.72723 32.5114 6.5193 32.5975 6.30249 32.5975C6.08567 32.5975 5.87774 32.5114 5.72442 32.3581C5.57111 32.2048 5.48499 31.9969 5.48499 31.78C5.48499 31.5632 5.57111 31.3553 5.72442 31.202C5.87774 31.0487 6.08567 30.9625 6.30249 30.9625C6.5193 30.9625 6.72723 31.0487 6.88055 31.202C7.03386 31.3553 7.11999 31.5632 7.11999 31.78ZM16.0029 15.8388C15.8418 16.1192 15.6637 16.3866 15.4786 16.6256C15.2936 16.8645 15.1054 17.0703 14.9249 17.231C14.7444 17.3917 14.5751 17.5042 14.4267 17.5621C14.2784 17.6199 14.154 17.622 14.0606 17.5681C13.9672 17.5141 13.9068 17.4054 13.8827 17.248C13.8586 17.0906 13.8714 16.8877 13.9204 16.651C13.9693 16.4143 14.0534 16.1484 14.1678 15.8687C14.2822 15.589 14.4247 15.301 14.587 15.0213C14.7481 14.7408 14.9263 14.4734 15.1113 14.2345C15.2963 13.9956 15.4845 13.7898 15.6651 13.6291C15.8456 13.4684 16.0149 13.3559 16.1632 13.298C16.3116 13.2402 16.436 13.2381 16.5294 13.292C16.6227 13.3459 16.6832 13.4547 16.7073 13.6121C16.7313 13.7695 16.7185 13.9724 16.6696 14.2091C16.6207 14.4458 16.5366 14.7117 16.4222 14.9914C16.3077 15.271 16.1653 15.5591 16.0029 15.8388Z" fill="#ECECEC" stroke="#ECECEC" stroke-width="1.22625" stroke-linecap="round" stroke-linejoin="round"/>
<path fill-rule="evenodd" clip-rule="evenodd" d="M31.7268 7.09155L30.991 9.4623L31.8085 9.70755C36.9588 11.3426 41.0463 13.7787 44.725 20.7438C48.4038 27.7089 50.0388 37.6007 49.2213 53.8526L49.1395 54.6701H52.8183L52.9 53.8526C53.7175 37.4045 51.4612 26.3028 47.5863 18.9617C43.7113 11.6205 38.1196 8.10525 32.5606 7.25505L31.7268 7.09155Z" fill="#ECECEC"/>
</svg>
