<svg width="56" height="57" viewBox="0 0 56 57" fill="none" xmlns="http://www.w3.org/2000/svg">
<path d="M27.875 10.1025V0.897461" stroke="black" stroke-width="1.22625" stroke-linecap="round"/>
<path fill-rule="evenodd" clip-rule="evenodd" d="M27.875 31.9625C27.875 31.9625 35.2325 19.7 32.78 14.795C32.78 14.795 31.145 10.7075 27.875 10.7075C24.605 10.7075 22.97 14.795 22.97 14.795C20.5175 19.7 27.875 31.9625 27.875 31.9625Z" fill="black" stroke="black" stroke-width="1.22625"/>
<path fill-rule="evenodd" clip-rule="evenodd" d="M9.89001 51.5825C18.8825 57.305 35.2325 57.305 44.225 51.5825V40.1375C44.225 40.1375 58.94 32.78 54.035 22.97C47.495 12.3425 31.9625 17.2475 27.875 29.51C22.1525 17.2475 6.62001 12.3425 1.71501 22.97C-3.18999 32.78 9.89001 39.32 9.89001 39.32V51.5825Z" fill="black"/>
<path d="M27.875 29.51C31.9625 17.2475 47.495 12.3425 54.035 22.97C58.94 32.78 44.225 40.1375 44.225 40.1375V51.5825C35.2325 57.305 18.8825 57.305 9.89001 51.5825V39.32C9.89001 39.32 -3.18999 32.78 1.71501 22.97C6.62001 12.3425 22.1525 17.2475 27.875 29.51ZM27.875 29.51V35.2325" stroke="black" stroke-width="1.22625" stroke-linecap="round" stroke-linejoin="round"/>
<path d="M23.7875 4.16748H31.9625" stroke="black" stroke-width="1.22625" stroke-linecap="round"/>
<path d="M43.4075 39.3199C43.4075 39.3199 57.305 32.7799 53.2666 23.5422C46.9228 13.9774 31.9625 20.5174 27.875 31.1449M27.875 31.1449L27.8914 34.5784M27.875 31.1449C23.7875 20.5174 7.28382 13.9774 2.52761 23.5422C-1.55499 32.7799 10.4623 38.2572 10.4623 38.2572" stroke="#ECECEC" stroke-width="1.22625" stroke-linecap="round" stroke-linejoin="round"/>
<path d="M9.88998 40.1375C18.8825 35.2325 35.2325 35.2325 44.225 40.1375M9.88998 45.86C18.8825 40.955 35.2325 40.955 44.225 45.86M9.88998 51.5825C18.8825 46.6775 35.2325 46.6775 44.225 51.5825" stroke="#ECECEC" stroke-width="1.22625" stroke-linecap="round" stroke-linejoin="round"/>
</svg>
