<svg width="56" height="57" viewBox="0 0 56 57" fill="none" xmlns="http://www.w3.org/2000/svg">
<path fill-rule="evenodd" clip-rule="evenodd" d="M5.55251 50.9475C11.0952 49.3615 22.0824 51.6505 27.625 47.6775C33.1677 51.6505 44.1549 49.3615 49.6975 50.9475C49.6975 50.9475 52.3953 51.8304 54.6025 54.2175C53.4907 55.8034 51.9048 55.8361 49.6975 55.035C44.1549 53.449 33.1677 55.7871 27.625 53.4C22.0824 55.7871 11.0952 53.449 5.55251 55.035C3.33872 55.8361 1.7544 55.8034 0.647507 54.2175C2.8613 51.0456 5.55251 50.9475 5.55251 50.9475Z" fill="black" stroke="black" stroke-width="1.22625" stroke-linejoin="round"/>
<path fill-rule="evenodd" clip-rule="evenodd" d="M15.3625 44.4075C19.45 48.495 35.8 48.495 39.8875 44.4075C40.705 41.955 39.8875 41.1375 39.8875 41.1375C39.8875 37.05 35.8 34.5975 35.8 34.5975C44.7925 32.145 45.61 15.795 27.625 9.255C9.64 15.795 10.4575 32.145 19.45 34.5975C19.45 34.5975 15.3625 37.05 15.3625 41.1375C15.3625 41.1375 14.545 41.955 15.3625 44.4075Z" fill="black" stroke="black" stroke-width="1.22625" stroke-linejoin="round"/>
<path fill-rule="evenodd" clip-rule="evenodd" d="M31.7125 5.16746C31.7125 6.25153 31.2819 7.2912 30.5153 8.05775C29.7488 8.82431 28.7091 9.25496 27.625 9.25496C26.5409 9.25496 25.5013 8.82431 24.7347 8.05775C23.9682 7.2912 23.5375 6.25153 23.5375 5.16746C23.5375 4.08338 23.9682 3.04371 24.7347 2.27716C25.5013 1.5106 26.5409 1.07996 27.625 1.07996C28.7091 1.07996 29.7488 1.5106 30.5153 2.27716C31.2819 3.04371 31.7125 4.08338 31.7125 5.16746Z" fill="black" stroke="black" stroke-width="1.22625" stroke-linejoin="round"/>
<path d="M19.45 34.5976H35.8M15.3625 41.1376H39.8875M27.625 17.4301V25.6051M23.5375 21.5176H31.7125" stroke="#ECECEC" stroke-width="1.22625" stroke-linecap="round"/>
</svg>
