<svg width="40" height="53" viewBox="0 0 40 53" fill="none" xmlns="http://www.w3.org/2000/svg">
<path d="M19.875 1.55249C16.2617 1.55249 13.335 4.47914 13.335 8.09249C13.335 9.54764 13.8092 10.8883 14.6103 11.9838C11.4221 13.815 9.2475 17.2321 9.2475 21.1725C9.2475 24.4915 10.7844 27.4509 13.1879 29.3965C8.28285 31.1296 1.0725 38.4708 1.0725 51.42H38.6775C38.6775 38.4708 31.4672 31.1296 26.5622 29.3965C28.9656 27.4509 30.5025 24.4915 30.5025 21.1725C30.5025 17.2321 28.328 13.815 25.1397 11.9838C25.9409 10.8883 26.415 9.54764 26.415 8.09249C26.415 4.47914 23.4884 1.55249 19.875 1.55249Z" fill="black" stroke="black" stroke-width="1.22625" stroke-linecap="round"/>
</svg>
