<svg width="64" height="59" viewBox="0 0 64 59" fill="none" xmlns="http://www.w3.org/2000/svg">
<path d="M5.1475 16.2038C7.63071 16.2038 9.64375 14.1908 9.64375 11.7076C9.64375 9.22434 7.63071 7.2113 5.1475 7.2113C2.66428 7.2113 0.651245 9.22434 0.651245 11.7076C0.651245 14.1908 2.66428 16.2038 5.1475 16.2038Z" fill="black"/>
<path d="M18.2275 11.2988C20.7107 11.2988 22.7238 9.28574 22.7238 6.80252C22.7238 4.31931 20.7107 2.30627 18.2275 2.30627C15.7443 2.30627 13.7313 4.31931 13.7313 6.80252C13.7313 9.28574 15.7443 11.2988 18.2275 11.2988Z" fill="black"/>
<path d="M32.125 9.66376C34.6082 9.66376 36.6213 7.65073 36.6213 5.16751C36.6213 2.6843 34.6082 0.671265 32.125 0.671265C29.6418 0.671265 27.6288 2.6843 27.6288 5.16751C27.6288 7.65073 29.6418 9.66376 32.125 9.66376Z" fill="black"/>
<path d="M46.0225 11.2988C48.5057 11.2988 50.5187 9.28574 50.5187 6.80252C50.5187 4.31931 48.5057 2.30627 46.0225 2.30627C43.5393 2.30627 41.5262 4.31931 41.5262 6.80252C41.5262 9.28574 43.5393 11.2988 46.0225 11.2988Z" fill="black"/>
<path d="M59.1025 16.2038C61.5857 16.2038 63.5988 14.1908 63.5988 11.7076C63.5988 9.22434 61.5857 7.2113 59.1025 7.2113C56.6193 7.2113 54.6063 9.22434 54.6063 11.7076C54.6063 14.1908 56.6193 16.2038 59.1025 16.2038Z" fill="black"/>
<path fill-rule="evenodd" clip-rule="evenodd" d="M10.0525 34.5975C23.95 32.145 44.3875 32.145 54.1975 34.5975L58.285 14.16L46.0225 32.9625L45.532 9.909L37.03 32.145L32.125 8.4375L27.22 32.145L18.718 9.909L18.2275 32.9625L5.965 14.16L10.0525 34.5975Z" fill="black" stroke="black" stroke-width="1.22625" stroke-linejoin="round"/>
<path fill-rule="evenodd" clip-rule="evenodd" d="M10.0525 34.5976C10.0525 37.8676 12.505 37.8676 14.14 41.1376C15.775 43.5901 15.775 42.7726 14.9575 46.8601C12.505 48.4951 12.505 50.9476 12.505 50.9476C10.0525 53.4001 13.3225 55.0351 13.3225 55.0351C23.95 56.6701 40.3 56.6701 50.9275 55.0351C50.9275 55.0351 53.38 53.4001 50.9275 50.9476C50.9275 50.9476 51.745 48.4951 49.2925 46.8601C48.475 42.7726 48.475 43.5901 50.11 41.1376C51.745 37.8676 54.1975 37.8676 54.1975 34.5976C40.3 32.1451 23.95 32.1451 10.0525 34.5976Z" fill="black" stroke="black" stroke-width="1.22625" stroke-linejoin="round"/>
<path d="M13.3225 55.035C25.4996 59.2713 38.7504 59.2713 50.9275 55.035" stroke="black" stroke-width="1.22625" stroke-linejoin="round"/>
<path d="M13.3225 39.5025C25.4996 35.2663 38.7504 35.2663 50.9275 39.5025M15.775 43.59H48.475M14.14 48.495C25.8183 52.3612 38.4317 52.3612 50.11 48.495M12.505 53.4C25.1762 58.0247 39.0738 58.0247 51.745 53.4" stroke="#ECECEC" stroke-width="1.22625" stroke-linecap="round" stroke-linejoin="round"/>
</svg>
