<svg width="46" height="51" viewBox="0 0 46 51" fill="none" xmlns="http://www.w3.org/2000/svg">
<path fill-rule="evenodd" clip-rule="evenodd" d="M0.802498 49.8524H44.9475V44.9474H0.802498V49.8524ZM6.525 38.4074L8.9775 34.3199H36.7725L39.225 38.4074H6.525ZM5.7075 44.9474V38.4074H40.0425V44.9474H5.7075Z" fill="black" stroke="black" stroke-width="1.22625" stroke-linejoin="round"/>
<path fill-rule="evenodd" clip-rule="evenodd" d="M8.9775 34.3199V13.0649H36.7725V34.3199H8.9775Z" fill="black" stroke="black" stroke-width="1.22625"/>
<path fill-rule="evenodd" clip-rule="evenodd" d="M8.9775 13.065L4.0725 8.97749H41.6775L36.7725 13.065H8.9775ZM4.0725 8.97749V0.80249H10.6125V4.07249H18.7875V0.80249H26.9625V4.07249H35.1375V0.80249H41.6775V8.97749H4.0725Z" fill="black"/>
<path d="M4.0725 8.97749L8.9775 13.065H36.7725L41.6775 8.97749M4.0725 8.97749H41.6775M4.0725 8.97749V0.80249H10.6125V4.07249H18.7875V0.80249H26.9625V4.07249H35.1375V0.80249H41.6775V8.97749" stroke="black" stroke-width="1.22625" stroke-linejoin="round"/>
<path d="M5.7075 44.13H40.0425M7.3425 37.59H38.4075M8.9775 34.32H36.7725M8.9775 13.065H36.7725M4.0725 8.97754H41.6775" stroke="#ECECEC" stroke-width="0.8175" stroke-linecap="round"/>
</svg>
