<svg width="54" height="54" viewBox="0 0 54 54" fill="none" xmlns="http://www.w3.org/2000/svg">
<path fill-rule="evenodd" clip-rule="evenodd" d="M26.8075 5.6875C43.975 7.3225 53.785 18.7675 52.9675 53.1025H15.3625C15.3625 38.3875 31.7125 42.475 28.4425 18.7675" fill="white"/>
<path d="M26.8075 5.6875C43.975 7.3225 53.785 18.7675 52.9675 53.1025H15.3625C15.3625 38.3875 31.7125 42.475 28.4425 18.7675" stroke="black" stroke-width="1.22625" stroke-linecap="round" stroke-linejoin="round"/>
<path fill-rule="evenodd" clip-rule="evenodd" d="M30.0775 18.7675C30.6988 23.5253 21.0032 30.8174 16.9975 33.4825C12.0925 36.7525 12.3868 40.5784 8.8225 40.0225C7.11883 38.4856 11.1278 35.0521 8.8225 35.1175C7.1875 35.1175 9.13315 37.1285 7.1875 38.3875C5.5525 38.3875 0.64259 40.0225 0.647495 31.8475C0.647495 28.5775 10.4575 12.2275 10.4575 12.2275C10.4575 12.2275 13.5476 9.12097 13.7275 6.50497C12.5339 4.87978 12.91 3.23497 12.91 1.59997C14.545 -0.0350293 17.815 5.68747 17.815 5.68747H21.085C21.085 5.68747 22.3603 2.43055 25.1725 0.782471C26.8075 0.782471 26.8075 5.68747 26.8075 5.68747" fill="white"/>
<path d="M30.0775 18.7675C30.6988 23.5253 21.0032 30.8174 16.9975 33.4825C12.0925 36.7525 12.3868 40.5784 8.8225 40.0225C7.11883 38.4856 11.1278 35.0521 8.8225 35.1175C7.1875 35.1175 9.13315 37.1285 7.1875 38.3875C5.5525 38.3875 0.64259 40.0225 0.647495 31.8475C0.647495 28.5775 10.4575 12.2275 10.4575 12.2275C10.4575 12.2275 13.5476 9.12097 13.7275 6.50497C12.5339 4.87978 12.91 3.23497 12.91 1.59997C14.545 -0.0350293 17.815 5.68747 17.815 5.68747H21.085C21.085 5.68747 22.3603 2.43055 25.1725 0.782471C26.8075 0.782471 26.8075 5.68747 26.8075 5.68747" stroke="black" stroke-width="1.22625" stroke-linecap="round" stroke-linejoin="round"/>
<path fill-rule="evenodd" clip-rule="evenodd" d="M6.37 31.03C6.37 31.2469 6.28387 31.4548 6.13056 31.6081C5.97725 31.7614 5.76932 31.8475 5.5525 31.8475C5.33569 31.8475 5.12775 31.7614 4.97444 31.6081C4.82113 31.4548 4.735 31.2469 4.735 31.03C4.735 30.8132 4.82113 30.6053 4.97444 30.452C5.12775 30.2987 5.33569 30.2125 5.5525 30.2125C5.76932 30.2125 5.97725 30.2987 6.13056 30.452C6.28387 30.6053 6.37 30.8132 6.37 31.03ZM15.253 15.0888C15.0919 15.3692 14.9137 15.6366 14.7287 15.8756C14.5436 16.1145 14.3555 16.3203 14.1749 16.481C13.9944 16.6417 13.8251 16.7542 13.6767 16.8121C13.5284 16.8699 13.404 16.872 13.3106 16.8181C13.2172 16.7641 13.1568 16.6554 13.1327 16.498C13.1087 16.3406 13.1215 16.1377 13.1704 15.901C13.2193 15.6643 13.3034 15.3984 13.4178 15.1187C13.5322 14.839 13.6747 14.551 13.837 14.2713C13.9981 13.9908 14.1763 13.7234 14.3613 13.4845C14.5464 13.2456 14.7345 13.0398 14.9151 12.8791C15.0956 12.7184 15.2649 12.6059 15.4133 12.548C15.5616 12.4902 15.686 12.4881 15.7794 12.542C15.8728 12.5959 15.9332 12.7047 15.9573 12.8621C15.9813 13.0195 15.9685 13.2224 15.9196 13.4591C15.8707 13.6958 15.7866 13.9617 15.6722 14.2414C15.5578 14.521 15.4153 14.8091 15.253 15.0888Z" fill="black" stroke="black" stroke-width="1.22625" stroke-linecap="round" stroke-linejoin="round"/>
</svg>
