<svg width="56" height="57" viewBox="0 0 56 57" fill="none" xmlns="http://www.w3.org/2000/svg">
<path d="M27.875 10.3525V1.14746M23.7875 4.41746H31.9625" stroke="black" stroke-width="1.22625" stroke-linecap="round"/>
<path fill-rule="evenodd" clip-rule="evenodd" d="M27.875 32.2125C27.875 32.2125 35.2325 19.95 32.78 15.045C32.78 15.045 31.145 10.9575 27.875 10.9575C24.605 10.9575 22.97 15.045 22.97 15.045C20.5175 19.95 27.875 32.2125 27.875 32.2125Z" fill="white" stroke="black" stroke-width="1.22625"/>
<path fill-rule="evenodd" clip-rule="evenodd" d="M9.89001 51.8325C18.8825 57.555 35.2325 57.555 44.225 51.8325V40.3875C44.225 40.3875 58.94 33.03 54.035 23.22C47.495 12.5925 31.9625 17.4975 27.875 29.76C22.1525 17.4975 6.62001 12.5925 1.71501 23.22C-3.18999 33.03 9.89001 39.57 9.89001 39.57V51.8325Z" fill="white"/>
<path d="M27.875 29.76C31.9625 17.4975 47.495 12.5925 54.035 23.22C58.94 33.03 44.225 40.3875 44.225 40.3875V51.8325C35.2325 57.555 18.8825 57.555 9.89001 51.8325V39.57C9.89001 39.57 -3.18999 33.03 1.71501 23.22C6.62001 12.5925 22.1525 17.4975 27.875 29.76ZM27.875 29.76V35.4825" stroke="black" stroke-width="1.22625" stroke-linecap="round" stroke-linejoin="round"/>
<path d="M9.88998 40.3875C18.8825 35.4825 35.2325 35.4825 44.225 40.3875M9.88998 46.11C18.8825 41.205 35.2325 41.205 44.225 46.11M9.88998 51.8325C18.8825 46.9275 35.2325 46.9275 44.225 51.8325" stroke="black" stroke-width="1.22625" stroke-linecap="round" stroke-linejoin="round"/>
</svg>
