<svg width="56" height="57" viewBox="0 0 56 57" fill="none" xmlns="http://www.w3.org/2000/svg">
<path fill-rule="evenodd" clip-rule="evenodd" d="M6.30249 51.1975C11.8451 49.6115 22.8323 51.9005 28.375 47.9275C33.9176 51.9005 44.9048 49.6115 50.4475 51.1975C50.4475 51.1975 53.1452 52.0804 55.3525 54.4675C54.2407 56.0534 52.6547 56.0861 50.4475 55.285C44.9048 53.699 33.9176 56.0371 28.375 53.65C22.8323 56.0371 11.8451 53.699 6.30249 55.285C4.0887 56.0861 2.50439 56.0534 1.39749 54.4675C3.61128 51.2956 6.30249 51.1975 6.30249 51.1975Z" fill="white" stroke="black" stroke-width="1.22625" stroke-linejoin="round"/>
<path fill-rule="evenodd" clip-rule="evenodd" d="M16.1125 44.6575C20.2 48.745 36.55 48.745 40.6375 44.6575C41.455 42.205 40.6375 41.3875 40.6375 41.3875C40.6375 37.3 36.55 34.8475 36.55 34.8475C45.5425 32.395 46.36 16.045 28.375 9.505C10.39 16.045 11.2075 32.395 20.2 34.8475C20.2 34.8475 16.1125 37.3 16.1125 41.3875C16.1125 41.3875 15.295 42.205 16.1125 44.6575Z" fill="white" stroke="black" stroke-width="1.22625" stroke-linejoin="round"/>
<path fill-rule="evenodd" clip-rule="evenodd" d="M32.4625 5.41746C32.4625 6.50153 32.0319 7.5412 31.2653 8.30775C30.4988 9.07431 29.4591 9.50496 28.375 9.50496C27.2909 9.50496 26.2513 9.07431 25.4847 8.30775C24.7182 7.5412 24.2875 6.50153 24.2875 5.41746C24.2875 4.33338 24.7182 3.29371 25.4847 2.52716C26.2513 1.7606 27.2909 1.32996 28.375 1.32996C29.4591 1.32996 30.4988 1.7606 31.2653 2.52716C32.0319 3.29371 32.4625 4.33338 32.4625 5.41746Z" fill="white" stroke="black" stroke-width="1.22625" stroke-linejoin="round"/>
<path d="M20.2 34.8476H36.55M16.1125 41.3876H40.6375M28.375 17.6801V25.8551M24.2875 21.7676H32.4625" stroke="black" stroke-width="1.22625" stroke-linecap="round"/>
</svg>
