<svg width="40" height="52" viewBox="0 0 40 52" fill="none" xmlns="http://www.w3.org/2000/svg">
<path d="M19.875 1.30249C16.2617 1.30249 13.335 4.22914 13.335 7.84249C13.335 9.29764 13.8092 10.6383 14.6103 11.7338C11.4221 13.565 9.2475 16.9821 9.2475 20.9225C9.2475 24.2415 10.7844 27.2009 13.1879 29.1465C8.28285 30.8796 1.0725 38.2208 1.0725 51.17H38.6775C38.6775 38.2208 31.4672 30.8796 26.5622 29.1465C28.9656 27.2009 30.5025 24.2415 30.5025 20.9225C30.5025 16.9821 28.328 13.565 25.1397 11.7338C25.9409 10.6383 26.415 9.29764 26.415 7.84249C26.415 4.22914 23.4884 1.30249 19.875 1.30249Z" fill="white" stroke="black" stroke-width="1.22625" stroke-linecap="round"/>
</svg>
