<svg width="62" height="58" viewBox="0 0 62 58" fill="none" xmlns="http://www.w3.org/2000/svg">
<path fill-rule="evenodd" clip-rule="evenodd" d="M7.4175 11.9575C7.4175 12.8247 7.07299 13.6565 6.45974 14.2697C5.8465 14.8829 5.01476 15.2275 4.1475 15.2275C3.28024 15.2275 2.44851 14.8829 1.83526 14.2697C1.22202 13.6565 0.877502 12.8247 0.877502 11.9575C0.877502 11.0902 1.22202 10.2585 1.83526 9.64522C2.44851 9.03197 3.28024 8.68746 4.1475 8.68746C5.01476 8.68746 5.8465 9.03197 6.45974 9.64522C7.07299 10.2585 7.4175 11.0902 7.4175 11.9575ZM34.395 4.59996C34.395 5.46721 34.0505 6.29895 33.4372 6.91219C32.824 7.52544 31.9923 7.86996 31.125 7.86996C30.2577 7.86996 29.426 7.52544 28.8128 6.91219C28.1995 6.29895 27.855 5.46721 27.855 4.59996C27.855 3.7327 28.1995 2.90096 28.8128 2.28772C29.426 1.67447 30.2577 1.32996 31.125 1.32996C31.9923 1.32996 32.824 1.67447 33.4372 2.28772C34.0505 2.90096 34.395 3.7327 34.395 4.59996ZM61.3725 11.9575C61.3725 12.8247 61.028 13.6565 60.4147 14.2697C59.8015 14.8829 58.9698 15.2275 58.1025 15.2275C57.2352 15.2275 56.4035 14.8829 55.7903 14.2697C55.177 13.6565 54.8325 12.8247 54.8325 11.9575C54.8325 11.0902 55.177 10.2585 55.7903 9.64522C56.4035 9.03197 57.2352 8.68746 58.1025 8.68746C58.9698 8.68746 59.8015 9.03197 60.4147 9.64522C61.028 10.2585 61.3725 11.0902 61.3725 11.9575ZM20.4975 6.23496C20.4975 7.10221 20.153 7.93395 19.5397 8.54719C18.9265 9.16044 18.0948 9.50496 17.2275 9.50496C16.3602 9.50496 15.5285 9.16044 14.9153 8.54719C14.302 7.93395 13.9575 7.10221 13.9575 6.23496C13.9575 5.3677 14.302 4.53596 14.9153 3.92272C15.5285 3.30947 16.3602 2.96496 17.2275 2.96496C18.0948 2.96496 18.9265 3.30947 19.5397 3.92272C20.153 4.53596 20.4975 5.3677 20.4975 6.23496ZM48.2925 7.05246C48.2925 7.91971 47.948 8.75145 47.3347 9.36469C46.7215 9.97794 45.8898 10.3225 45.0225 10.3225C44.1552 10.3225 43.3235 9.97794 42.7103 9.36469C42.097 8.75145 41.7525 7.91971 41.7525 7.05246C41.7525 6.1852 42.097 5.35346 42.7103 4.74022C43.3235 4.12697 44.1552 3.78246 45.0225 3.78246C45.8898 3.78246 46.7215 4.12697 47.3347 4.74022C47.948 5.35346 48.2925 6.1852 48.2925 7.05246Z" fill="white" stroke="black" stroke-width="1.22625" stroke-linecap="round" stroke-linejoin="round"/>
<path fill-rule="evenodd" clip-rule="evenodd" d="M9.0525 34.8475C22.95 32.395 43.3875 32.395 53.1975 34.8475L56.4675 15.2275L45.0225 33.2125V10.3225L36.03 32.395L31.125 7.87L26.22 32.395L17.2275 9.505V33.2125L5.7825 15.2275L9.0525 34.8475Z" fill="white" stroke="black" stroke-width="1.22625" stroke-linejoin="round"/>
<path fill-rule="evenodd" clip-rule="evenodd" d="M9.05249 34.8476C9.05249 38.1176 11.505 38.1176 13.14 41.3876C14.775 43.8401 14.775 43.0226 13.9575 47.1101C11.505 48.7451 11.505 51.1976 11.505 51.1976C9.05249 53.6501 12.3225 55.2851 12.3225 55.2851C22.95 56.9201 39.3 56.9201 49.9275 55.2851C49.9275 55.2851 52.38 53.6501 49.9275 51.1976C49.9275 51.1976 50.745 48.7451 48.2925 47.1101C47.475 43.0226 47.475 43.8401 49.11 41.3876C50.745 38.1176 53.1975 38.1176 53.1975 34.8476C39.3 32.3951 22.95 32.3951 9.05249 34.8476Z" fill="white" stroke="black" stroke-width="1.22625" stroke-linejoin="round"/>
<path d="M13.14 41.3875C18.8625 39.7525 43.3875 39.7525 49.11 41.3875M13.9575 47.11C23.7675 45.475 38.4825 45.475 48.2925 47.11" stroke="black" stroke-width="1.22625" stroke-linecap="round" stroke-linejoin="round"/>
</svg>
