<svg width="46" height="51" viewBox="0 0 46 51" fill="none" xmlns="http://www.w3.org/2000/svg">
<path fill-rule="evenodd" clip-rule="evenodd" d="M0.802498 50.1025H44.9475V45.1975H0.802498V50.1025ZM5.7075 45.1975V38.6575H40.0425V45.1975H5.7075ZM4.0725 9.22749V1.05249H10.6125V4.32249H18.7875V1.05249H26.9625V4.32249H35.1375V1.05249H41.6775V9.22749" fill="white"/>
<path d="M4.0725 9.22749V1.05249H10.6125V4.32249H18.7875V1.05249H26.9625V4.32249H35.1375V1.05249H41.6775V9.22749M0.802498 50.1025H44.9475V45.1975H0.802498V50.1025ZM5.7075 45.1975V38.6575H40.0425V45.1975H5.7075Z" stroke="black" stroke-width="1.22625" stroke-linejoin="round"/>
<path fill-rule="evenodd" clip-rule="evenodd" d="M41.6775 9.22754L36.7725 14.1325H8.9775L4.0725 9.22754" fill="white"/>
<path d="M41.6775 9.22754L36.7725 14.1325H8.9775L4.0725 9.22754" stroke="black" stroke-width="1.22625" stroke-linecap="round" stroke-linejoin="round"/>
<path fill-rule="evenodd" clip-rule="evenodd" d="M36.7725 14.1324V34.5699H8.9775V14.1324" fill="white"/>
<path d="M36.7725 14.1324V34.5699H8.9775V14.1324" stroke="black" stroke-width="1.22625"/>
<path fill-rule="evenodd" clip-rule="evenodd" d="M36.7725 34.5699L39.225 38.6574H6.525L8.9775 34.5699" fill="white"/>
<path d="M36.7725 34.5699L39.225 38.6574H6.525L8.9775 34.5699" stroke="black" stroke-width="1.22625" stroke-linecap="round" stroke-linejoin="round"/>
<path d="M4.0725 9.22754H41.6775" stroke="black" stroke-width="1.22625" stroke-linecap="round"/>
</svg>
